# xmcd
#
# Track frame offsets:
#	150
#	16046
#	25612
#	40757
#	61303
#	70783
#	88311
#	103874
#	117507
#	132040
#	147515
#	170033
#	186364
#	205708
#	224166
#	233613
#
# Disc length: 3345 seconds
#
# Revision: 2
# Processed by: cddbd v1.5.2PL0 Copyright (c) Steve Scherf et al.
# Submitted via: EasyCDDAExtractor 15.3.0.1
#
DISCID=e80d0f10
DTITLE=The Music Of Nashville - Season 1, Volume 2
DYEAR=2013
DGENRE=Country
TTITLE0=Sam Palladio, Clare Bowen - Fade Into You
TTITLE1=Lennon Stella, Maisy Stella - Ho Hey
TTITLE2=Sam Palladio - Gun For A Mouth
TTITLE3=Hayden Panettiere - We Are Water
TTITLE4=Clare Bowen - Looking For A Place To Shine
TTITLE5=Connie Britton - Stronger Than Me
TTITLE6=Connie Britton - Bitter Memory
TTITLE7=Jonathan Jackson - Let There Be Lonely
TTITLE8=Hayden Panettiere - Hypnotizing
TTITLE9=Clare Bowen, Sam Palladio - I Will Fall (Studio Version)
TTITLE10=Hayden Panettiere - Nothing In This World Will Ever Break My Heart Ag
TTITLE10=ain
TTITLE11=Hayden Panettiere - Consider Me
TTITLE12=Jonathan Jackson - Keep Asking Why (Studio Version)
TTITLE13=Clare Bowen, Chris Carmack - You Ain't Dolly
TTITLE14=Charles Esten - Matchbox Blues
TTITLE15=Sam Palladio - Shine
EXTD=
EXTT0=
EXTT1=
EXTT2=
EXTT3=
EXTT4=
EXTT5=
EXTT6=
EXTT7=
EXTT8=
EXTT9=
EXTT10=
EXTT11=
EXTT12=
EXTT13=
EXTT14=
EXTT15=
PLAYORDER=
